<?xml version="1.0" encoding="utf-8"?>
<!-- Generator: Adobe Illustrator 16.0.0, SVG Export Plug-In . SVG Version: 6.00 Build 0)  -->
<!DOCTYPE svg PUBLIC "-//W3C//DTD SVG 1.1//EN" "http://www.w3.org/Graphics/SVG/1.1/DTD/svg11.dtd">
<svg version="1.1" id="Layer_1" xmlns="http://www.w3.org/2000/svg" xmlns:xlink="http://www.w3.org/1999/xlink" x="0px" y="0px"
	 width="128px" height="128px" viewBox="0 0 128 128" enable-background="new 0 0 128 128" xml:space="preserve">
<g>
	<g>
		<polygon fill="#282D33" points="128,69.886 98.274,69.886 98.274,65.906 121.751,65.906 111.592,44.15 86.06,44.15 86.06,40.171 
			114.126,40.171 		"/>
	</g>
	<g>
		<polygon fill="#282D33" points="28.987,69.886 0,69.886 13.873,40.171 41.203,40.171 41.203,44.15 16.406,44.15 6.25,65.906 
			28.987,65.906 		"/>
	</g>
	<g>
		<polygon fill="#282D33" points="124.667,108.686 3.334,108.686 3.334,70.119 7.313,70.119 7.313,104.706 120.688,104.706 
			120.688,70.119 124.667,70.119 		"/>
	</g>
	<g>
		<path fill="#282D33" d="M110.361,57.204H17.638L64,24.006L110.361,57.204z M30.031,53.225h67.937L64,28.901L30.031,53.225z"/>
	</g>
	<g>
		<polygon fill="#282D33" points="38.16,57.182 35.902,53.905 64,34.544 92.097,53.905 89.839,57.182 64,39.376 		"/>
	</g>
	<g>
		<polygon fill="#282D33" points="100.638,108.686 27.362,108.686 27.362,65.294 31.342,65.294 31.342,104.706 96.658,104.706 
			96.658,65.294 100.638,65.294 		"/>
	</g>
	<g>
		<path fill="#282D33" d="M127.671,117.952H0.329v-13.246h127.342V117.952z M4.309,113.973h119.383v-5.287H4.309V113.973z"/>
	</g>
	<g>
		<path fill="#282D33" d="M104.242,66.078H23.758v-12.86h80.484V66.078z M27.737,62.099h72.525v-4.901H27.737V62.099z"/>
	</g>
	<g>
		<rect x="62.011" y="10.048" fill="#282D33" width="3.979" height="16.105"/>
	</g>
	<g>
		<g>
			<polygon fill="#282D33" points="86.78,26.776 64.039,26.776 64.039,22.797 80.669,22.797 79.399,19.924 80.669,17.054 
				66.441,17.054 66.441,13.074 86.78,13.074 83.75,19.924 			"/>
		</g>
	</g>
	<g>
		<g>
			<path fill="#282D33" d="M50.61,105.495h-3.979V84.139c0-1.602-1.295-2.905-2.886-2.905c-1.592,0-2.887,1.304-2.887,2.905v21.356
				h-3.979V84.139c0-3.796,3.08-6.885,6.866-6.885c3.785,0,6.865,3.089,6.865,6.885V105.495z"/>
		</g>
	</g>
	<g>
		<g>
			<path fill="#282D33" d="M70.434,105.495h-3.979V84.139c0-1.602-1.294-2.905-2.885-2.905c-1.592,0-2.886,1.304-2.886,2.905v21.356
				h-3.979V84.139c0-3.796,3.08-6.885,6.865-6.885c3.784,0,6.864,3.089,6.864,6.885V105.495z"/>
		</g>
	</g>
	<g>
		<g>
			<path fill="#282D33" d="M90.259,105.495h-3.979V84.139c0-1.602-1.294-2.905-2.885-2.905s-2.886,1.304-2.886,2.905v21.356h-3.979
				V84.139c0-3.796,3.079-6.885,6.865-6.885c3.785,0,6.864,3.089,6.864,6.885V105.495z"/>
		</g>
	</g>
	<g>
		<g>
			<g>
				<rect x="11.548" y="77.949" fill="#282D33" width="3.979" height="6.434"/>
			</g>
			<g>
				<rect x="19.758" y="77.949" fill="#282D33" width="3.979" height="6.434"/>
			</g>
		</g>
		<g>
			<g>
				<rect x="11.548" y="87.601" fill="#282D33" width="3.979" height="6.434"/>
			</g>
			<g>
				<rect x="19.758" y="87.601" fill="#282D33" width="3.979" height="6.434"/>
			</g>
		</g>
		<g>
			<g>
				<rect x="104.263" y="77.949" fill="#282D33" width="3.979" height="6.434"/>
			</g>
			<g>
				<rect x="112.475" y="77.949" fill="#282D33" width="3.979" height="6.434"/>
			</g>
		</g>
		<g>
			<g>
				<rect x="104.263" y="87.601" fill="#282D33" width="3.979" height="6.434"/>
			</g>
			<g>
				<rect x="112.475" y="87.601" fill="#282D33" width="3.979" height="6.434"/>
			</g>
		</g>
	</g>
	<g>
		<rect x="60.84" y="46.588" fill="#282D33" width="3.979" height="4.423"/>
	</g>
</g>
</svg>
