<?xml version="1.0" encoding="utf-8"?>
<!-- Generator: Adobe Illustrator 16.0.0, SVG Export Plug-In . SVG Version: 6.00 Build 0)  -->
<!DOCTYPE svg PUBLIC "-//W3C//DTD SVG 1.1//EN" "http://www.w3.org/Graphics/SVG/1.1/DTD/svg11.dtd">
<svg version="1.1" id="Layer_1" xmlns="http://www.w3.org/2000/svg" xmlns:xlink="http://www.w3.org/1999/xlink" x="0px" y="0px"
	 width="128px" height="128px" viewBox="0 0 128 128" enable-background="new 0 0 128 128" xml:space="preserve">
<g>
	<g>
		<g>
			<path fill="#282D33" d="M97.079,128h-4V88.412l0.591-0.587c7.608-7.551,11.799-17.586,11.799-28.255
				c0-22.063-18.126-40.014-40.404-40.014c-22.282,0-40.41,17.95-40.41,40.014c0,0.611,0.024,1.212,0.049,1.819l0.023,0.583
				L12.478,82.996h8.37v18.588c0,5.146,4.231,9.332,9.433,9.332h20.111V128h-4v-13.084H30.28c-7.407,0-13.433-5.98-13.433-13.332
				V86.996H5.515l15.169-26.031c-0.017-0.463-0.029-0.926-0.029-1.395c0-24.269,19.922-44.013,44.41-44.013
				c24.484,0,44.404,19.745,44.404,44.013c0,11.464-4.394,22.26-12.39,30.497V128z"/>
		</g>
	</g>
	<g>
		<g>
			<g>
				<path fill="#282D33" d="M64,90.16c-17.051,0-30.924-13.753-30.924-30.659c0-16.903,13.873-30.654,30.924-30.654
					c17.054,0,30.927,13.751,30.927,30.654C94.927,76.407,81.054,90.16,64,90.16z M64,32.848c-14.846,0-26.924,11.957-26.924,26.654
					C37.076,74.202,49.154,86.16,64,86.16c14.848,0,26.927-11.958,26.927-26.659C90.927,44.805,78.848,32.848,64,32.848z"/>
			</g>
			<g>
				<path fill="#282D33" d="M64,90.16c-10.502,0-18.729-13.466-18.729-30.659c0-17.189,8.228-30.654,18.729-30.654
					s18.728,13.465,18.728,30.654C82.728,76.694,74.502,90.16,64,90.16z M64,32.848c-7.984,0-14.729,12.206-14.729,26.654
					c0,14.452,6.745,26.659,14.729,26.659c7.983,0,14.729-12.207,14.729-26.659C78.729,45.054,71.983,32.848,64,32.848z"/>
			</g>
			<g>
				<path fill="#282D33" d="M64,90.159c-1.104,0-2-0.896-2-2V30.846c0-1.104,0.896-2,2-2c17.054,0,30.927,13.751,30.927,30.654
					C94.927,76.406,81.054,90.159,64,90.159z M66,32.919v53.167C79.918,85.07,90.927,73.535,90.927,59.5
					C90.927,45.469,79.918,33.935,66,32.919z"/>
			</g>
			<g>
				<path fill="#282D33" d="M91.039,71.604H36.955c-0.831,0-1.575-0.514-1.87-1.291c-1.333-3.514-2.009-7.151-2.009-10.811
					c0-3.667,0.678-7.306,2.016-10.814c0.295-0.775,1.039-1.288,1.868-1.288h54.079c0.829,0,1.572,0.512,1.868,1.287
					c1.34,3.508,2.019,7.146,2.019,10.815c0,3.666-0.679,7.304-2.018,10.815C92.612,71.092,91.868,71.604,91.039,71.604z
					 M38.371,67.604h51.254c0.864-2.65,1.301-5.37,1.301-8.102c0-2.734-0.437-5.453-1.3-8.102H38.374
					c-0.862,2.649-1.298,5.368-1.298,8.102C37.076,62.23,37.511,64.95,38.371,67.604z"/>
			</g>
		</g>
		<g>
			<g>
				<path fill="#282D33" d="M5.176,71.48c-0.138-0.665-0.263-1.333-0.377-2.006l3.943-0.668c0.106,0.624,0.223,1.245,0.351,1.863
					L5.176,71.48z"/>
			</g>
			<g>
				<path fill="#282D33" d="M107.515,100.516l-2.887-2.768c0.526-0.549,1.042-1.108,1.546-1.679l2.996,2.65
					C108.631,99.329,108.078,99.928,107.515,100.516z M111.768,95.572l-3.168-2.441c0.77-0.999,1.516-2.039,2.217-3.093l3.33,2.217
					C113.394,93.385,112.594,94.501,111.768,95.572z M116.293,88.778l-3.477-1.979c0.632-1.109,1.229-2.244,1.773-3.372l3.601,1.74
					C117.607,86.376,116.969,87.591,116.293,88.778z M119.838,81.433l-3.714-1.484c0.469-1.173,0.903-2.378,1.29-3.582l3.808,1.225
					C120.806,78.882,120.341,80.175,119.838,81.433z M122.336,73.658l-3.885-0.955c0.302-1.229,0.565-2.482,0.781-3.728l3.941,0.686
					C122.941,70.996,122.659,72.341,122.336,73.658z M123.732,65.615l-3.979-0.41c0.13-1.264,0.217-2.542,0.26-3.802l3.998,0.136
					C123.966,62.889,123.872,64.26,123.732,65.615z M4.259,65.494c-0.136-1.348-0.228-2.718-0.271-4.072l3.998-0.128
					c0.04,1.263,0.125,2.541,0.252,3.798L4.259,65.494z M120.014,57.594c-0.042-1.258-0.128-2.535-0.257-3.796l3.979-0.407
					c0.139,1.352,0.231,2.721,0.276,4.07L120.014,57.594z M7.992,57.486l-3.997-0.144c0.049-1.355,0.145-2.724,0.285-4.069
					l3.979,0.416C8.127,54.944,8.038,56.221,7.992,57.486z M119.238,50.029c-0.215-1.243-0.477-2.495-0.778-3.722l3.885-0.955
					c0.324,1.317,0.604,2.663,0.835,3.998L119.238,50.029z M8.785,49.923l-3.94-0.69c0.234-1.335,0.519-2.679,0.846-3.995
					l3.882,0.964C9.268,47.427,9.003,48.68,8.785,49.923z M117.425,42.645c-0.385-1.2-0.817-2.404-1.287-3.578l3.714-1.484
					c0.504,1.261,0.969,2.553,1.381,3.843L117.425,42.645z M10.616,42.544l-3.806-1.231c0.417-1.289,0.886-2.582,1.394-3.843
					l3.711,1.493C11.442,40.138,11.005,41.343,10.616,42.544z M114.605,35.588c-0.547-1.134-1.142-2.267-1.768-3.365l3.475-1.981
					c0.672,1.179,1.309,2.393,1.896,3.61L114.605,35.588z M13.458,35.482l-3.599-1.747c0.591-1.216,1.233-2.431,1.91-3.61
					l3.469,1.991C14.607,33.215,14.009,34.348,13.458,35.482z M110.84,28.983c-0.697-1.049-1.441-2.09-2.213-3.093l3.17-2.438
					c0.828,1.076,1.627,2.191,2.375,3.317L110.84,28.983z M17.247,28.881l-3.323-2.226c0.752-1.124,1.555-2.238,2.385-3.311
					l3.164,2.446C18.698,26.793,17.949,27.833,17.247,28.881z M106.205,22.953c-0.834-0.944-1.714-1.875-2.616-2.766l2.811-2.845
					c0.967,0.955,1.91,1.952,2.804,2.963L106.205,22.953z M21.903,22.861l-2.988-2.658c0.897-1.009,1.844-2.003,2.811-2.954
					l2.803,2.853C23.625,20.989,22.742,21.917,21.903,22.861z M100.789,17.604c-0.958-0.825-1.956-1.628-2.969-2.387l2.4-3.2
					c1.084,0.813,2.153,1.673,3.18,2.557L100.789,17.604z M27.334,17.528l-2.603-3.037c1.027-0.881,2.1-1.738,3.185-2.547
					l2.391,3.207C29.294,15.906,28.294,16.706,27.334,17.528z M94.696,13.036c-1.06-0.688-2.158-1.349-3.265-1.964l1.943-3.496
					c1.187,0.659,2.363,1.368,3.499,2.105L94.696,13.036z M33.433,12.98l-2.169-3.361c1.136-0.733,2.313-1.437,3.498-2.093
					l1.937,3.5C35.592,11.638,34.493,12.295,33.433,12.98z M88.037,9.334c-1.142-0.538-2.32-1.043-3.502-1.503l1.451-3.728
					c1.267,0.493,2.53,1.036,3.754,1.612L88.037,9.334z M40.086,9.299l-1.695-3.623c1.226-0.573,2.485-1.112,3.746-1.6l1.445,3.729
					C42.405,8.262,41.229,8.764,40.086,9.299z M80.943,6.571c-1.204-0.377-2.438-0.718-3.669-1.013l0.932-3.89
					c1.318,0.315,2.642,0.681,3.933,1.085L80.943,6.571z M47.178,6.552l-1.189-3.819c1.29-0.401,2.613-0.765,3.934-1.079
					l0.928,3.891C49.616,5.838,48.381,6.177,47.178,6.552z M73.544,4.797c-1.247-0.21-2.517-0.381-3.774-0.508l0.4-3.979
					c1.346,0.135,2.705,0.317,4.04,0.542L73.544,4.797z M54.581,4.787l-0.662-3.944c1.332-0.224,2.692-0.405,4.041-0.539
					l0.396,3.979C57.096,4.408,55.825,4.578,54.581,4.787z M65.968,4.036c-0.654-0.022-1.323-0.03-1.971-0.033
					c-0.618,0-1.23,0.01-1.841,0.03l-0.13-3.997c0.668-0.021,1.327-0.045,2.013-0.032c0.689,0,1.378,0.012,2.063,0.034L65.968,4.036
					z"/>
			</g>
			<g>
				<path fill="#282D33" d="M104.621,103.337l-2.697-2.953c0.469-0.429,0.931-0.864,1.384-1.306l2.793,2.863
					C105.616,102.414,105.123,102.879,104.621,103.337z"/>
			</g>
		</g>
	</g>
</g>
</svg>
