<?xml version="1.0" encoding="UTF-8" standalone="no"?>
<!-- Generator: Adobe Illustrator 16.0.0, SVG Export Plug-In . SVG Version: 6.00 Build 0)  -->

<svg
   xmlns:dc="http://purl.org/dc/elements/1.1/"
   xmlns:cc="http://creativecommons.org/ns#"
   xmlns:rdf="http://www.w3.org/1999/02/22-rdf-syntax-ns#"
   xmlns:svg="http://www.w3.org/2000/svg"
   xmlns="http://www.w3.org/2000/svg"
   xmlns:sodipodi="http://sodipodi.sourceforge.net/DTD/sodipodi-0.dtd"
   xmlns:inkscape="http://www.inkscape.org/namespaces/inkscape"
   version="1.1"
   id="Layer_1"
   x="0px"
   y="0px"
   width="128px"
   height="128px"
   viewBox="0 0 128 128"
   enable-background="new 0 0 128 128"
   xml:space="preserve"
   sodipodi:docname="icon-parents.svg"
   inkscape:version="0.92.5 (2060ec1f9f, 2020-04-08)"><metadata
   id="metadata3066"><rdf:RDF><cc:Work
       rdf:about=""><dc:format>image/svg+xml</dc:format><dc:type
         rdf:resource="http://purl.org/dc/dcmitype/StillImage" /><dc:title></dc:title></cc:Work></rdf:RDF></metadata><defs
   id="defs3064" /><sodipodi:namedview
   pagecolor="#ffffff"
   bordercolor="#666666"
   borderopacity="1"
   objecttolerance="10"
   gridtolerance="10"
   guidetolerance="10"
   inkscape:pageopacity="0"
   inkscape:pageshadow="2"
   inkscape:window-width="1916"
   inkscape:window-height="1040"
   id="namedview3062"
   showgrid="false"
   inkscape:zoom="3.6875"
   inkscape:cx="43.305774"
   inkscape:cy="66.148047"
   inkscape:window-x="0"
   inkscape:window-y="18"
   inkscape:window-maximized="0"
   inkscape:current-layer="Layer_1" />
<g
   id="g3059"
   transform="matrix(0.78125,0,0,0.78125,14.000384,14)">
	<g
   id="g2991">
		<path
   d="m 118.073,82.54 -0.053,-4.009 c 2.302,-0.03 5.565,-2.168 5.562,-4.125 V 37.079 c -0.002,-2.61 -1.973,-5.64 -4.137,-6.356 -10.242,-3.316 -21.08,-3.317 -31.331,0.004 -2.15,0.711 -4.123,3.743 -4.126,6.354 v 37.321 h -4.01 V 37.079 c 0.005,-4.349 3.096,-8.907 6.888,-10.162 11.072,-3.586 22.765,-3.586 33.826,-0.004 3.808,1.26 6.896,5.818 6.899,10.166 v 37.325 c 0.011,4.813 -5.722,8.086 -9.518,8.136 z"
   id="path2989"
   inkscape:connector-curvature="0"
   style="fill:#282d33" />
	</g>
	<g
   id="g2995">
		<polygon
   points="48.997,75.493 39.343,45.058 43.164,43.846 53.998,78.001 41.002,82.516 39.687,78.728 "
   id="polygon2993"
   style="fill:#282d33" />
	</g>
	<g
   id="g2999">
		<path
   d="m 65.302,82.934 c -4.933,0 -8.947,-4.037 -8.947,-9.001 0,-4.964 4.014,-9.002 8.947,-9.002 4.935,0 8.948,4.038 8.948,9.002 0,4.964 -4.014,9.001 -8.948,9.001 z m 0,-13.994 c -2.723,0 -4.938,2.239 -4.938,4.992 0,2.752 2.215,4.992 4.938,4.992 2.724,0 4.939,-2.24 4.939,-4.992 0,-2.752 -2.216,-4.992 -4.939,-4.992 z"
   id="path2997"
   inkscape:connector-curvature="0"
   style="fill:#282d33" />
	</g>
	<g
   id="g3003">
		<path
   d="M 76.253,111.095 H 53.131 V 86.193 H 76.253 Z M 57.14,107.085 H 72.244 V 90.203 H 57.14 Z"
   id="path3001"
   inkscape:connector-curvature="0"
   style="fill:#282d33" />
	</g>
	<g
   id="g3007">
		
			<rect
   x="44.335999"
   y="80.897003"
   transform="matrix(0.6056,0.7957,-0.7957,0.6056,86.0773,-7.8851)"
   width="13.316"
   height="4.0079999"
   id="rect3005"
   style="fill:#282d33" />
	</g>
	<g
   id="g3011">
		
			<rect
   x="76.386002"
   y="76.244003"
   transform="matrix(0.7959,0.6054,-0.6054,0.7959,66.1919,-30.54)"
   width="4.0100002"
   height="13.314"
   id="rect3009"
   style="fill:#282d33" />
	</g>
	<g
   id="g3021">
		<g
   id="g3015">
			<rect
   x="57.198002"
   y="108.682"
   width="4.0100002"
   height="17.613001"
   id="rect3013"
   style="fill:#282d33" />
		</g>
		<g
   id="g3019">
			<rect
   x="68.178001"
   y="108.682"
   width="4.0100002"
   height="17.613001"
   id="rect3017"
   style="fill:#282d33" />
		</g>
	</g>
	<g
   id="g3025">
		<polygon
   points="29.539,105.962 33.526,106.389 31.221,128 17.375,128 15.072,106.388 19.059,105.963 20.98,123.99 27.616,123.99 "
   id="polygon3023"
   style="fill:#282d33" />
	</g>
	<g
   id="g3029">
		<rect
   x="101.779"
   y="86.121002"
   width="4.0100002"
   height="39.875999"
   id="rect3027"
   style="fill:#282d33" />
	</g>
	<g
   id="g3035">
		<g
   id="g3033">
			<polygon
   points="118.48,42.81 118.48,125.544 89.094,125.544 89.094,42.81 93.104,42.81 93.104,121.535 114.472,121.535 114.472,42.81 "
   id="polygon3031"
   style="fill:#282d33" />
		</g>
	</g>
	<g
   id="g3039">
		<rect
   x="101.779"
   y="86.121002"
   width="4.0100002"
   height="39.875999"
   id="rect3037"
   style="fill:#282d33" />
	</g>
	<g
   id="g3043">
		<path
   d="M 5.79,78.736 C 5.014,76.127 4.154,73.263 3.29,70.391 2.354,67.28 1.416,64.157 0.577,61.329 l -0.169,-0.57 0.169,-0.57 c 1.614,-5.438 3.229,-10.875 4.848,-16.31 1.093,-3.5 4.154,-8.114 7.209,-9.51 4.29,-1.884 7.987,-2.757 11.662,-2.76 3.683,0.003 7.379,0.876 11.645,2.748 3.08,1.402 6.142,6.018 7.227,9.498 l -3.827,1.194 c -0.954,-3.059 -3.536,-6.348 -5.036,-7.031 -3.716,-1.63 -6.902,-2.396 -10,-2.399 -3.107,0.002 -6.292,0.769 -10.03,2.41 -1.476,0.675 -4.06,3.965 -5.014,7.021 -1.555,5.22 -3.113,10.464 -4.669,15.71 0.794,2.669 1.668,5.579 2.539,8.479 0.864,2.875 1.726,5.742 2.503,8.354 z"
   id="path3041"
   inkscape:connector-curvature="0"
   style="fill:#282d33" />
	</g>
	<g
   id="g3049">
		<g
   id="g3047">
			<polygon
   points="35.798,46.1 47.105,101.975 1.495,101.975 12.805,46.1 16.735,46.896 6.397,97.965 42.204,97.965 31.868,46.896 "
   id="polygon3045"
   style="fill:#282d33" />
		</g>
	</g>
	<g
   id="g3053">
		<path
   d="m 103.788,28.042 c -7.682,0 -13.931,-6.29 -13.931,-14.021 C 89.857,6.29 96.106,0 103.788,0 c 7.68,0 13.928,6.29 13.928,14.021 0,7.731 -6.248,14.021 -13.928,14.021 z m 0,-24.033 c -5.471,0 -9.922,4.491 -9.922,10.011 0,5.52 4.451,10.012 9.922,10.012 5.469,0 9.919,-4.492 9.919,-10.012 0,-5.52 -4.45,-10.011 -9.919,-10.011 z"
   id="path3051"
   inkscape:connector-curvature="0"
   style="fill:#282d33" />
	</g>
	<g
   id="g3057">
		<path
   d="m 24.301,34.801 c -7.344,0 -13.318,-6.014 -13.318,-13.406 0,-7.392 5.974,-13.406 13.318,-13.406 7.344,0 13.318,6.014 13.318,13.406 0,7.393 -5.974,13.406 -13.318,13.406 z m 0,-22.803 c -5.133,0 -9.309,4.216 -9.309,9.397 0,5.182 4.176,9.397 9.309,9.397 5.133,0 9.309,-4.215 9.309,-9.397 0,-5.181 -4.176,-9.397 -9.309,-9.397 z"
   id="path3055"
   inkscape:connector-curvature="0"
   style="fill:#282d33" />
	</g>
</g>
</svg>