<?xml version="1.0" encoding="utf-8"?>
<!-- Generator: Adobe Illustrator 16.0.0, SVG Export Plug-In . SVG Version: 6.00 Build 0)  -->
<!DOCTYPE svg PUBLIC "-//W3C//DTD SVG 1.1//EN" "http://www.w3.org/Graphics/SVG/1.1/DTD/svg11.dtd">
<svg version="1.1" id="Layer_1" xmlns="http://www.w3.org/2000/svg" xmlns:xlink="http://www.w3.org/1999/xlink" x="0px" y="0px"
	 width="128px" height="128px" viewBox="0 0 128 128" enable-background="new 0 0 128 128" xml:space="preserve">
<g>
	<g>
		<rect x="109.766" y="69.207" fill="#282D33" width="4" height="26.8"/>
	</g>
	<g>
		<path fill="#282D33" d="M18.23,96.007h-4V35.071c0-2.913,2.361-5.283,5.263-5.283h47.442v4H19.494
			c-0.696,0-1.263,0.575-1.263,1.283V96.007z"/>
	</g>
	<g>
		<g>
			<path fill="#282D33" d="M81.316,74.455v-9.773h-3.949c-2.943,0-5.338-2.639-5.338-5.882V27.067c0-3.246,2.395-5.886,5.338-5.886
				h38.799c2.947,0,5.348,2.64,5.348,5.886V58.8c0,3.243-2.4,5.882-5.348,5.882H92.781L81.316,74.455z M77.367,25.182
				c-0.725,0-1.338,0.863-1.338,1.886V58.8c0,1.021,0.613,1.882,1.338,1.882h7.949v5.107l5.99-5.107h24.859
				c0.73,0,1.348-0.861,1.348-1.882V27.067c0-1.022-0.617-1.886-1.348-1.886H77.367z"/>
		</g>
		<g>
			<path fill="#282D33" d="M88.783,54.821V28.868l22.346,12.979L88.783,54.821z M92.783,35.817v12.057l10.381-6.027L92.783,35.817z"
				/>
		</g>
	</g>
	<g>
		<g>
			<path fill="#282D33" d="M26.457,94.52h-4v-4.592c0-4.266,3.789-7.736,8.445-7.736h28.281c4.656,0,8.444,3.471,8.444,7.736v3.363
				h-4v-3.363c0-2.061-1.994-3.736-4.444-3.736H30.901c-2.451,0-4.445,1.676-4.445,3.736V94.52z"/>
		</g>
		<g>
			<rect x="37.5" y="79.016" fill="#282D33" width="4" height="5.234"/>
		</g>
		<g>
			<rect x="48.33" y="79.016" fill="#282D33" width="4" height="5.234"/>
		</g>
		<g>
			<path fill="#282D33" d="M44.86,80.559c-8.599,0-14.84-5.758-14.84-13.69v-2.313h4v2.313c0,5.706,4.458,9.69,10.84,9.69
				c6.383,0,10.84-3.984,10.84-9.69V54.472h4v12.396C59.701,74.801,53.459,80.559,44.86,80.559z"/>
		</g>
		<g>
			<path fill="#282D33" d="M34.08,74.646L23.997,62.412V51.604c0-3.968,3.215-7.196,7.167-7.196h1.293
				c1.638-1.915,4.021-3.03,6.57-3.03l26.239-0.002v7.486c0,4.8-3.889,8.705-8.668,8.705H35.715c-0.902,0-1.636,0.743-1.636,1.657
				V74.646z M27.997,60.977l2.083,2.527v-4.28c0-3.12,2.528-5.657,5.636-5.657h20.882c2.573,0,4.667-2.111,4.667-4.705v-3.486
				H39.026c-1.571,0.002-3.03,0.797-3.901,2.128l-0.592,0.904h-3.37c-1.746,0-3.167,1.434-3.167,3.196V60.977z"/>
		</g>
	</g>
	<g>
		<path fill="#282D33" d="M118.564,106.818H9.434c-3.71,0-8.142-3.249-8.635-3.62L0,102.599v-8.896h128v8.896l-0.799,0.601
			C126.707,103.569,122.273,106.818,118.564,106.818z M4,100.559c1.574,1.037,3.923,2.26,5.434,2.26h109.131
			c1.51,0,3.859-1.223,5.436-2.26v-2.855H4V100.559z"/>
	</g>
</g>
</svg>
