<?xml version="1.0" encoding="utf-8"?>
<!-- Generator: Adobe Illustrator 16.0.0, SVG Export Plug-In . SVG Version: 6.00 Build 0)  -->
<!DOCTYPE svg PUBLIC "-//W3C//DTD SVG 1.1//EN" "http://www.w3.org/Graphics/SVG/1.1/DTD/svg11.dtd">
<svg version="1.1" id="Layer_1" xmlns="http://www.w3.org/2000/svg" xmlns:xlink="http://www.w3.org/1999/xlink" x="0px" y="0px"
	 width="128px" height="128px" viewBox="0 0 128 128" enable-background="new 0 0 128 128" xml:space="preserve">
<g>
	<g>
		<g>
			<g>
				<path fill="#282D33" d="M47.026,124.044h-4.017v-14.119h-17.09c-7.755,0-14.065-6.336-14.065-14.124V80.077H0l15.9-27.662
					c-0.019-0.509-0.033-1.018-0.033-1.531c0-25.876,20.965-46.928,46.734-46.928c17.946,0,34.522,10.524,42.228,26.813
					l-3.631,1.718C94.153,17.596,79.003,7.974,62.602,7.974c-23.555,0-42.717,19.249-42.717,42.91c0,0.653,0.025,1.301,0.052,1.946
					l0.024,0.58L6.944,76.06h8.926v19.741c0,5.573,4.508,10.107,10.048,10.107h21.107V124.044z"/>
			</g>
			<g>
				<rect x="92.245" y="95.088" fill="#282D33" width="4.017" height="28.956"/>
			</g>
		</g>
	</g>
	<g>
		<g>
			<polygon fill="#282D33" points="76.053,74.256 62.855,60.999 58.733,65.14 55.887,62.306 62.854,55.305 76.053,68.562 
				124.568,19.838 127.414,22.672 			"/>
		</g>
		<g>
			<polygon fill="#282D33" points="128,38.224 123.982,38.224 123.982,23.263 109.097,23.263 109.097,19.246 128,19.246 			"/>
		</g>
		<g>
			<polygon fill="#282D33" points="118.718,73.001 114.701,73.001 114.701,58.038 99.815,58.038 99.815,54.021 118.718,54.021 			
				"/>
		</g>
		<g>
			<polygon fill="#282D33" points="78.695,97.059 40.945,59.142 27.319,72.825 24.473,69.991 40.945,53.448 78.695,91.365 
				115.287,54.613 118.133,57.447 			"/>
		</g>
	</g>
</g>
</svg>
